{"title":"Pyaar Ka Ghulam - India Telefilm - HDTVRip x264  AAC [ TaRa ].mk","uid":15202729,"size":335325519,"categoryP":"video","categoryS":"tv_shows","magnet":"?xt=urn:btih:355212ff3691f7d63bb1a74ef640751321cd3c7f&amp;dn=Pyaar+Ka+Ghulam+-+India+Telefilm+-+HDTVRip+x264++AAC+%5B+TaRa+%5D.mk&amp;tr=udp%3A%2F%2Ftracker.leechers-paradise.org%3A6969&amp;tr=udp%3A%2F%2Fzer0day.ch%3A1337&amp;tr=udp%3A%2F%2Fopen.demonii.com%3A1337&amp;tr=udp%3A%2F%2Ftracker.coppersurfer.tk%3A6969&amp;tr=udp%3A%2F%2Fexodus.desync.com%3A6969","seeders":0,"leechers":0,"uploader":"MdTaRa","files":1,"time":1467604282,"description":"===================================================================\r\nGeneral\r\nComplete name : Pyaar Ka Ghulam - India Telefilm - HDTVRip x264 AAC [ TaRa ].mkv\r\nFormat : Matroska\r\nFormat version : Version 4 / Version 2\r\nFile size : 320 MiB\r\nDuration : 41mn 13s\r\nOverall bit rate : 1 085 Kbps\r\n========================================================================\r\nVideo\r\nID : 1\r\nFormat : AVC\r\nFormat/Info : Advanced Video Codec\r\nFormat profile :   \r\nFormat settings, CABAC : Yes\r\nFormat settings, ReFrames : 4 frames\r\nCodec ID : V_MPEG4/ISO/AVC\r\nDuration : 41mn 13s\r\nBit rate : 1 000 Kbps\r\nWidth : 848 pixels\r\nHeight : 476 pixels\r\nDisplay aspect ratio : 16:9\r\nFrame rate mode : Constant\r\nFrame rate : 25.000 fps\r\nColor space : YUV\r\nChroma subsampling : 4:2:0\r\nBit depth : 8 bits\r\nScan type : Progressive\r\nBits/(Pixel*Frame) : 0.099\r\nStream size : 298 MiB (93%)\r\nTitle : ....::::: TaRa ::::::.....\r\nLanguage : Hindi\r\nDefault : Yes\r\nForced : No\r\n=========================================================================\r\nAudio\r\nID : 2\r\nFormat : AAC\r\nFormat/Info : Advanced Audio Codec\r\nFormat profile : LC\r\nCodec ID : A_AAC\r\nDuration : 41mn 13s\r\nBit rate : 72.0 Kbps\r\nChannel(s) : 2 channels\r\nChannel positions : Front: L R\r\nSampling rate : 48.0 KHz\r\nFrame rate : 46.875 fps (1024 spf)\r\nCompression mode : Lossy\r\nDelay relative to video : -80ms\r\nStream size : 21.0 MiB (7%)\r\nTitle : ....::::: TaRa ::::::.....\r\nLanguage : Hindi\r\nDefault : Yes\r\nForced : No\r\n================================================================================= \nhttps://picoolio.net/image/IJbe","torrent":{"xt":"urn:btih:355212ff3691f7d63bb1a74ef640751321cd3c7f","amp;dn":"Pyaar+Ka+Ghulam+-+India+Telefilm+-+HDTVRip+x264++AAC+%5B+TaRa+%5D.mk","amp;tr":["udp%3A%2F%2Ftracker.leechers-paradise.org%3A6969","udp%3A%2F%2Fzer0day.ch%3A1337","udp%3A%2F%2Fopen.demonii.com%3A1337","udp%3A%2F%2Ftracker.coppersurfer.tk%3A6969","udp%3A%2F%2Fexodus.desync.com%3A6969"],"infoHash":"355212ff3691f7d63bb1a74ef640751321cd3c7f","infoHashBuffer":{"type":"Buffer","data":[53,82,18,255,54,145,247,214,59,177,167,78,246,64,117,19,33,205,60,127]},"announce":[],"urlList":[]}}